<svg xmlns="http://www.w3.org/2000/svg" width="58.299" height="57.944" viewBox="0 0 58.299 57.944">
  <g id="ключ_отвертка" data-name="ключ отвертка" transform="translate(-359.489 -1094)">
    <g id="Ключ" transform="translate(4.489 3)">
      <path id="Вычитание_3" data-name="Вычитание 3" d="M9.783,55.054a9.321,9.321,0,0,1-3.637-.735l5.744-4.875.1-3.741L9.4,42.55l-3.344-.134L.3,47.341A10.715,10.715,0,0,1,0,44.8,10.038,10.038,0,0,1,9.783,34.544a9.324,9.324,0,0,1,2.992.489l.586.2.443-.449,19.518-19.76.486-.493-.238-.664a10.65,10.65,0,0,1-.623-3.609A10.038,10.038,0,0,1,42.729,0a9.351,9.351,0,0,1,2.91.463L41.315,5.157l.335,3.726,2.936,2.8,3.335-.3,4.063-4.448a10.674,10.674,0,0,1,.526,3.317A10.038,10.038,0,0,1,42.729,20.51a9.383,9.383,0,0,1-2.083-.233l-.537-.122-.4.4L19.5,41.024l-.44.444.162.617a10.727,10.727,0,0,1,.345,2.713A10.038,10.038,0,0,1,9.783,55.054Z" transform="translate(356 1092)" fill="none" stroke="#1472d0" stroke-width="2"/>
    </g>
    <path id="Объединение_6" data-name="Объединение 6" d="M672.043,865.254a2.285,2.285,0,0,1-2.246-2.271l-12.005-14.7-.365.373a2.814,2.814,0,0,1-4.024,0,2.924,2.924,0,0,1,0-4.089l1.831-1.861-1.676-1.8,3.893-3.758,1.666,1.613,1.663-1.69a2.814,2.814,0,0,1,4.024,0,2.926,2.926,0,0,1,0,4.089l-.3.306,14.568,13.117a2.263,2.263,0,0,1,.862.542,2.285,2.285,0,0,1,0,3.232l-6.234,6.234a2.278,2.278,0,0,1-1.615.669Zm-24.613-30.943-13.052-14.033-3.119-.211-4.27-6.483L630.574,810l6.485,4.268.229,3.355,13.7,13.259-3.553,3.429h0Z" transform="translate(-264.012 285.69)" fill="none" stroke="#1472d0" stroke-width="2"/>
  </g>
</svg>
