<svg xmlns="http://www.w3.org/2000/svg" width="68.093" height="54.761" viewBox="0 0 68.093 54.761">
  <g id="Слой_2" transform="translate(-0.081 -0.1)">
    <g id="Сгруппировать_20" data-name="Сгруппировать 20" transform="translate(1.084 1.1)">
      <path id="Контур_13" data-name="Контур 13" d="M20.4,28.409V4.444A3.39,3.39,0,0,1,23.744,1.1h5.434a3.39,3.39,0,0,1,3.344,3.344V28.409" transform="translate(6.513 -1.1)" fill="none" stroke="#1472d0" stroke-linecap="round" stroke-miterlimit="10" stroke-width="2"/>
      <path id="Контур_14" data-name="Контур 14" d="M2.2,27.439a107.034,107.034,0,0,0,31.488,4.6c10.45,0,26.751-1.951,31.488-4.737" transform="translate(-0.645 9.204)" fill="none" stroke="#1472d0" stroke-linecap="round" stroke-miterlimit="10" stroke-width="2"/>
      <path id="Контур_15" data-name="Контур 15" d="M2.2,35.738s.139-14.63,6.27-22.432A21.04,21.04,0,0,1,18.78,6.2" transform="translate(-0.645 0.906)" fill="none" stroke="#1472d0" stroke-linecap="round" stroke-miterlimit="10" stroke-width="2"/>
      <path id="Контур_16" data-name="Контур 16" d="M51.88,35.738s-.139-14.63-6.27-22.432A21.04,21.04,0,0,0,35.3,6.2" transform="translate(12.373 0.906)" fill="none" stroke="#1472d0" stroke-linecap="round" stroke-miterlimit="10" stroke-width="2"/>
      <path id="Контур_17" data-name="Контур 17" d="M22.951,3.2s-6.409.557-7.663,2.508c-1.951,3.065-1.254,10.31-1.254,10.31" transform="translate(3.962 -0.274)" fill="none" stroke="#1472d0" stroke-linecap="round" stroke-miterlimit="10" stroke-width="2"/>
      <path id="Контур_18" data-name="Контур 18" d="M29.1,3.2s6.409.557,7.663,2.508c1.951,3.065,1.254,10.31,1.254,10.31" transform="translate(9.935 -0.274)" fill="none" stroke="#1472d0" stroke-linecap="round" stroke-miterlimit="10" stroke-width="2"/>
      <line id="Линия_6" data-name="Линия 6" x2="41.799" transform="translate(12.144 52.667)" fill="none" stroke="#1472d0" stroke-linecap="round" stroke-miterlimit="10" stroke-width="2"/>
      <path id="Контур_19" data-name="Контур 19" d="M47.4,27.3a9.885,9.885,0,0,1,1.533,2.369,10.942,10.942,0,0,1-.418,2.926" transform="translate(17.132 9.204)" fill="none" stroke="#1472d0" stroke-linecap="round" stroke-miterlimit="10" stroke-width="2"/>
      <path id="Контур_20" data-name="Контур 20" d="M51.464,31.1a20.292,20.292,0,0,1-2.926,4.737c-1.254,1.393-2.926,3.2-5.155,5.295-.7.557-3.483.836-3.483.836" transform="translate(14.182 10.699)" fill="none" stroke="#1472d0" stroke-linecap="round" stroke-miterlimit="10" stroke-width="2"/>
      <path id="Контур_21" data-name="Контур 21" d="M2.639,27.3a9.886,9.886,0,0,0-1.533,2.369,10.942,10.942,0,0,0,.418,2.926" transform="translate(-1.084 9.204)" fill="none" stroke="#1472d0" stroke-linecap="round" stroke-miterlimit="10" stroke-width="2"/>
      <path id="Контур_22" data-name="Контур 22" d="M1.4,31.1a20.292,20.292,0,0,0,2.926,4.737c1.254,1.393,2.926,3.2,5.155,5.295.7.557,3.483.836,3.483.836" transform="translate(-0.96 10.699)" fill="none" stroke="#1472d0" stroke-linecap="round" stroke-miterlimit="10" stroke-width="2"/>
    </g>
  </g>
</svg>
